<svg width="198" height="198" viewBox="0 0 198 198" fill="none" xmlns="http://www.w3.org/2000/svg">
<path d="M177.402 163.28L168.56 51.8598C168.009 44.6815 161.938 39.0582 154.739 39.0582H137.274V38.2732C137.274 17.1692 120.104 0 99.0004 0C77.8964 0 60.7273 17.1692 60.7273 38.2732V39.0582H43.2623C36.0627 39.0582 29.9916 44.6811 29.4425 51.8447L20.5975 163.295C19.913 172.218 23.0087 181.102 29.0902 187.668C35.1717 194.234 43.7929 198 52.7427 198H145.258C154.207 198 162.829 194.234 168.911 187.668C174.992 181.102 178.088 172.218 177.402 163.28ZM72.325 38.2732C72.325 23.5643 84.292 11.5977 99.0004 11.5977C113.709 11.5977 125.676 23.5647 125.676 38.2732V39.0582H72.325V38.2732ZM160.402 179.787C156.45 184.053 151.073 186.402 145.258 186.402H52.7431C46.9284 186.402 41.5507 184.053 37.5992 179.787C33.6481 175.522 31.7168 169.979 32.1607 164.197L41.005 52.7465C41.0947 51.574 42.0863 50.6559 43.2623 50.6559H60.7273V64.9394C60.7273 68.1418 63.3237 70.7382 66.5261 70.7382C69.7285 70.7382 72.325 68.1418 72.325 64.9394V50.6559H125.676V64.9394C125.676 68.1418 128.272 70.7382 131.475 70.7382C134.677 70.7382 137.274 68.1418 137.274 64.9394V50.6559H154.739C155.915 50.6559 156.906 51.5744 156.997 52.762L165.84 164.181C166.284 169.979 164.353 175.521 160.402 179.787Z" fill="#5AAC45"/>
<path d="M125.126 98.3369C122.862 96.0723 119.19 96.0723 116.926 98.3369L91.0324 124.23L81.076 114.274C78.8117 112.009 75.1399 112.009 72.8752 114.274C70.6106 116.538 70.6106 120.21 72.8752 122.474L86.9321 136.531C88.0644 137.663 89.5486 138.23 91.0321 138.23C92.5155 138.23 94.0001 137.664 95.132 136.531L125.125 106.538C127.39 104.273 127.39 100.602 125.126 98.3369Z" fill="#5AAC45"/>
</svg>
