<svg width="198" height="198" viewBox="0 0 198 198" fill="none" xmlns="http://www.w3.org/2000/svg">
<path d="M46.1999 130.35C35.2801 130.35 26.3999 139.23 26.3999 150.15C26.3999 161.07 35.2801 169.95 46.1999 169.95C57.1197 169.95 65.9999 161.07 65.9999 150.15C65.9999 139.23 57.1193 130.35 46.1999 130.35ZM46.1999 163.35C38.9199 163.35 33 157.43 33 150.15C33 142.87 38.9203 136.95 46.1999 136.95C53.4795 136.95 59.3998 142.871 59.3998 150.15C59.3998 157.43 53.4795 163.35 46.1999 163.35Z" fill="#5AAC45"/>
<path d="M158.4 130.35C147.48 130.35 138.6 139.23 138.6 150.15C138.6 161.07 147.48 169.95 158.4 169.95C169.32 169.95 178.2 161.07 178.2 150.15C178.2 139.23 169.32 130.35 158.4 130.35ZM158.4 163.35C151.12 163.35 145.2 157.43 145.2 150.15C145.2 142.87 151.121 136.95 158.4 136.95C165.68 136.95 171.6 142.871 171.6 150.15C171.6 157.43 165.68 163.35 158.4 163.35Z" fill="#5AAC45"/>
<path d="M197.475 112.065L167.775 65.8649C167.168 64.9209 166.122 64.3501 165 64.3501H128.7C126.875 64.3501 125.4 65.8285 125.4 67.65V150.15C125.4 151.975 126.875 153.45 128.7 153.45H141.9V146.85H132V70.9502H163.198L191.4 114.82V146.85H174.9V153.45H194.7C196.524 153.45 197.999 151.975 197.999 150.15V113.85C198 113.22 197.818 112.596 197.475 112.065Z" fill="#5AAC45"/>
<path d="M145.2 107.25V84.1499H171.6V77.5498H141.9C140.076 77.5498 138.601 79.0282 138.601 80.8497V110.55C138.601 112.375 140.076 113.85 141.9 113.85H191.4V107.249H145.2V107.25Z" fill="#5AAC45"/>
<path d="M128.7 41.2502H3.29987C1.47843 41.2502 0 42.7287 0 44.5501V150.15C0 151.975 1.47843 153.45 3.29987 153.45H29.7V146.85H6.60013V47.85H125.4V146.85H62.6999V153.45H128.7C130.525 153.45 132 151.975 132 150.15V44.5501C132 42.7287 130.525 41.2502 128.7 41.2502Z" fill="#5AAC45"/>
<path d="M23.0998 133.65H3.2998V140.25H23.0998V133.65Z" fill="#5AAC45"/>
<path d="M125.4 133.65H69.2998V140.25H125.4V133.65Z" fill="#5AAC45"/>
<path d="M194.7 133.65H181.5V140.25H194.7V133.65Z" fill="#5AAC45"/>
<path d="M128.7 54.4502H13.2002V61.0503H128.7V54.4502Z" fill="#5AAC45"/>
<path d="M49.5 146.85H42.8999V153.45H49.5V146.85Z" fill="#5AAC45"/>
<path d="M161.7 146.85H155.1V153.45H161.7V146.85Z" fill="#5AAC45"/>
<path d="M59.4003 28.0498H13.2002V34.6499H59.4003V28.0498Z" fill="#5AAC45"/>
<path d="M6.60013 28.0498H0V34.6499H6.60013V28.0498Z" fill="#5AAC45"/>
</svg>
