<svg width="518" height="395" viewBox="0 0 518 395" fill="none" xmlns="http://www.w3.org/2000/svg">
<g clip-path="url(#clip0)">
<path d="M8.99969 262C247.5 286 296.499 211.001 505.999 280C498.999 375.5 178.499 402 8.99969 262Z" fill="url(#paint0_linear)"/>
<path d="M168.6 245.85C165.2 246.65 162.35 247.05 160.05 247.05C157.75 247.05 155.55 246.9 153.45 246.6C150.35 250.3 147.55 255.25 145.05 261.45C142.55 267.65 140.65 273.2 139.35 278.1C138.15 283 136.8 289 135.3 296.1C127.7 332.3 120.1 358 112.5 373.2C107.5 374.7 101.3 376.15 93.9 377.55C103.9 360.45 112 340.6 118.2 318H87.15C79.25 292.4 75.15 267.4 74.85 243H118.65C116.55 252.3 115.5 262.2 115.5 272.7C115.5 283.1 117.2 295 120.6 308.4C121.3 305.7 122.5 301 124.2 294.3C125.9 287.5 127.15 282.65 127.95 279.75C128.75 276.85 129.95 272.75 131.55 267.45C133.25 262.15 134.75 258.2 136.05 255.6C137.45 252.9 139.15 249.9 141.15 246.6C144.75 240.7 149.5 236.7 155.4 234.6C157.1 234.1 160.55 233.6 165.75 233.1C170.95 232.5 174.7 231.45 177 229.95C174.3 236.15 171.5 241.45 168.6 245.85ZM205.191 286.392C203.511 286.104 201.879 285.96 200.295 285.96C198.759 285.96 196.887 286.224 194.679 286.752C193.959 289.776 193.599 292.728 193.599 295.608C193.599 303.048 196.911 308.76 203.535 312.744C207.951 309.816 211.935 306.168 215.487 301.8C215.631 303.72 215.751 306.648 215.847 310.584C212.295 313.368 208.671 315.552 204.975 317.136C201.279 318.72 196.671 319.512 191.151 319.512H189.495C185.175 317.64 181.767 314.88 179.271 311.232C176.823 307.584 175.599 303.744 175.599 299.712C175.599 294.336 177.807 289.776 182.223 286.032C186.639 282.24 193.047 280.344 201.447 280.344C206.151 280.344 211.071 280.944 216.207 282.144C215.439 285.168 214.479 288.024 213.327 290.712C210.303 291 207.183 291.144 203.967 291.144C204.447 289.8 204.855 288.216 205.191 286.392ZM268.035 317.424V318H251.331C251.139 315.264 250.731 312.432 250.107 309.504C247.131 312.528 243.771 315.36 240.027 318H223.251C222.915 316.032 222.747 313.44 222.747 310.224C222.747 306.96 223.227 303.696 224.187 300.432C227.643 299.424 230.955 297.72 234.123 295.32C237.339 292.92 239.667 290.328 241.107 287.544C239.811 285.528 238.443 283.68 237.003 282H260.907C265.659 292.32 268.035 304.128 268.035 317.424ZM248.811 304.248C247.563 299.976 245.931 295.944 243.915 292.152C241.659 298.776 240.363 305.04 240.027 310.944C243.483 309.168 246.411 306.936 248.811 304.248ZM316.319 322.464C316.319 319.488 314.327 318 310.343 318H289.175C285.143 318 283.127 320.184 283.127 324.552C283.127 325.272 283.151 325.824 283.199 326.208C280.463 326.16 278.303 326.088 276.719 325.992C275.711 322.728 274.799 318.216 273.983 312.456C274.991 312.552 276.503 312.648 278.519 312.744C278.519 307.512 278.975 303.408 279.887 300.432C283.199 299.472 286.199 297.816 288.887 295.464C291.623 293.112 293.711 290.472 295.151 287.544C293.855 285.528 292.487 283.68 291.047 282H314.879C319.055 290.88 321.407 301.224 321.935 313.032L326.831 313.248C325.919 318.288 324.815 322.632 323.519 326.28L315.599 325.848C316.079 324.6 316.319 323.472 316.319 322.464ZM294.143 308.568C294.143 310.008 294.239 311.304 294.431 312.456C297.551 312.936 300.815 313.2 304.223 313.248C303.311 305.616 301.223 298.656 297.959 292.368C295.415 298.368 294.143 303.768 294.143 308.568ZM332.603 318C331.451 313.2 330.875 307.2 330.875 300C330.875 292.752 331.571 286.752 332.963 282H350.675C349.907 286.464 349.403 290.544 349.163 294.24C357.563 295.2 365.027 297.312 371.555 300.576C371.411 307.008 370.667 312.816 369.323 318H332.603ZM349.019 299.208C349.019 304.248 349.619 308.904 350.819 313.176C353.363 310.008 354.947 306 355.571 301.152C353.459 300.048 351.275 299.4 349.019 299.208ZM394.3 313.248C397.612 313.248 400.3 312.984 402.364 312.456C401.692 307.512 399.244 303.36 395.02 300C394.54 304.272 394.3 308.688 394.3 313.248ZM376.156 296.112C376.156 291.216 376.612 286.512 377.524 282H420.652C419.98 285.36 419.212 288.264 418.348 290.712C417.196 290.76 415.516 290.808 413.308 290.856C411.148 290.904 409.492 290.952 408.34 291C408.868 289.368 409.156 287.928 409.204 286.68C404.26 286.68 400.204 286.824 397.036 287.112C396.652 288.84 396.172 291.48 395.596 295.032C405.388 296.232 412.972 298.608 418.348 302.16C417.772 308.256 416.74 313.536 415.252 318H379.108C377.14 311.088 376.156 303.792 376.156 296.112ZM472.856 317.424V318H456.152C455.96 315.264 455.552 312.432 454.928 309.504C451.952 312.528 448.592 315.36 444.848 318H428.072C427.736 316.032 427.568 313.44 427.568 310.224C427.568 306.96 428.048 303.696 429.008 300.432C432.464 299.424 435.776 297.72 438.944 295.32C442.16 292.92 444.488 290.328 445.928 287.544C444.632 285.528 443.264 283.68 441.824 282H465.728C470.48 292.32 472.856 304.128 472.856 317.424ZM453.632 304.248C452.384 299.976 450.752 295.944 448.736 292.152C446.48 298.776 445.184 305.04 444.848 310.944C448.304 309.168 451.232 306.936 453.632 304.248Z" fill="#204120"/>
<path fill-rule="evenodd" clip-rule="evenodd" d="M291.291 11.5848L304.173 24.4669L304.069 24.5704L358.361 78.8621V43.1628H382.652V103.153L507 227.501L494.118 240.383L291.187 37.4525L90 238.64V239H89.6396L89.4709 239.169L89.3021 239H9V220H82.8754L291.291 11.5848Z" fill="url(#paint1_linear)"/>
<rect x="258" y="126" width="30" height="30" fill="#56AB2F"/>
<rect x="258" y="171" width="30" height="30" fill="#A8E063"/>
<rect x="303" y="126" width="30" height="30" fill="#A8E063"/>
<rect x="303" y="171" width="30" height="30" fill="#56AB2F"/>
</g>
<defs>
<linearGradient id="paint0_linear" x1="266.504" y1="219.675" x2="232.643" y2="359.695" gradientUnits="userSpaceOnUse">
<stop stop-color="#56AB2F"/>
<stop offset="1" stop-color="#A8E063"/>
</linearGradient>
<linearGradient id="paint1_linear" x1="392" y1="40.4999" x2="54.5" y2="240" gradientUnits="userSpaceOnUse">
<stop stop-color="#56AB2F"/>
<stop offset="1" stop-color="#A8E063"/>
</linearGradient>
<clipPath id="clip0">
<rect width="518" height="395" fill="white"/>
</clipPath>
</defs>
</svg>
