<svg width="37" height="39" viewBox="0 0 37 39" fill="none" xmlns="http://www.w3.org/2000/svg">
<path d="M18.5003 16.4819C20.8806 16.4819 22.8169 14.4907 22.8169 12.0442C22.8169 9.59772 20.8806 7.60645 18.5003 7.60645C16.1199 7.60645 14.1836 9.59772 14.1836 12.0442C14.1836 14.4907 16.1199 16.4819 18.5003 16.4819ZM18.5003 8.87437C20.2004 8.87437 21.5836 10.2964 21.5836 12.0442C21.5836 13.792 20.2004 15.214 18.5003 15.214C16.8001 15.214 15.4169 13.792 15.4169 12.0442C15.4169 10.2964 16.8001 8.87437 18.5003 8.87437Z" fill="#395931"/>
<path d="M18.3913 34.7124L27.8515 20.6663C31.3998 15.8034 30.8868 7.81008 26.7533 3.56145C24.5197 1.2647 21.5498 0 18.3913 0C15.2327 0 12.2628 1.2647 10.0293 3.56082C5.89575 7.80945 5.38269 15.8027 8.9168 20.6466L18.3913 34.7124ZM10.9012 4.4572C12.9023 2.40071 15.562 1.26787 18.3913 1.26787C21.2205 1.26787 23.8802 2.40071 25.8813 4.4572C29.6121 8.29188 30.0715 15.5111 26.8513 19.9246L18.3913 32.4848L9.91765 19.9056C6.71099 15.5111 7.17102 8.29188 10.9012 4.4572Z" fill="#395931"/>
<path d="M25.9722 27.2633C25.633 27.2208 25.3271 27.4705 25.2877 27.8186C25.2482 28.1666 25.4899 28.4817 25.8279 28.5222C32.3127 29.307 35.7667 31.4218 35.7667 32.6472C35.7667 34.3677 29.1979 36.7678 18.5 36.7678C7.80207 36.7678 1.23333 34.3677 1.23333 32.6472C1.23333 31.4218 4.68728 29.307 11.1722 28.5222C11.5101 28.4817 11.7518 28.166 11.7123 27.8186C11.6723 27.4705 11.3664 27.2195 11.0279 27.2633C4.53497 28.0493 0 30.263 0 32.6472C0 35.325 6.35475 38.0356 18.5 38.0356C30.6453 38.0356 37 35.325 37 32.6472C37 30.263 32.465 28.0493 25.9722 27.2633Z" fill="#395931"/>
</svg>
