<svg width="36" height="38" viewBox="0 0 36 38" fill="none" xmlns="http://www.w3.org/2000/svg">
<path d="M35.0553 28.5488L27.7688 23.5534C26.8441 22.9245 25.6046 23.1314 24.921 24.0288L22.7985 26.8343C22.5257 27.204 22.0299 27.3113 21.6353 27.0859L21.2316 26.8571C19.8931 26.1071 18.2278 25.1735 14.8725 21.7229C11.5172 18.2724 10.6072 16.5591 9.87763 15.1858L9.65625 14.7707C9.43402 14.3651 9.53638 13.8532 9.89619 13.5706L12.6233 11.3893C13.4959 10.6864 13.6975 9.41257 13.0865 8.4617L8.22722 0.971044C7.60104 0.0027506 6.34474 -0.287925 5.37534 0.311133L2.32838 2.19272C1.37101 2.77133 0.668621 3.7084 0.368501 4.80758C-0.728703 8.91737 0.0967125 16.0102 10.2604 26.4599C18.3454 34.7708 24.3644 37.0058 28.5014 37.0058C29.4535 37.0099 30.4018 36.8826 31.321 36.6271C32.3904 36.319 33.3021 35.5968 33.8646 34.6123L35.6967 31.4819C36.2803 30.4851 35.9977 29.1928 35.0553 28.5488ZM34.663 30.8491L32.8351 33.9814C32.4312 34.692 31.7755 35.2144 31.0053 35.4393C27.3147 36.481 20.8668 35.6182 11.1093 25.5873C1.35168 15.5564 0.512479 8.9285 1.52574 5.13388C1.7448 4.34121 2.25365 3.66627 2.9457 3.25041L5.99267 1.37128C6.41328 1.11111 6.95855 1.23722 7.23026 1.65741L9.8699 5.73142L12.0854 9.14741C12.3507 9.55986 12.2635 10.1127 11.885 10.4179L9.15724 12.5992C8.32712 13.2517 8.09006 14.4324 8.60115 15.3695L8.81776 15.7741C9.58447 17.2196 10.5377 19.018 14.0178 22.595C17.4979 26.1719 19.2466 27.1519 20.6522 27.94L21.0463 28.1633C21.9578 28.6886 23.1064 28.445 23.7411 27.5916L25.863 24.7874C26.1599 24.3985 26.6975 24.309 27.0988 24.5814L34.3847 29.5768C34.7937 29.8559 34.9164 30.4168 34.663 30.8491Z" fill="#395931"/>
</svg>
